<svg width="10" height="8" viewBox="0 0 10 8" fill="none" xmlns="http://www.w3.org/2000/svg">
<path d="M10 0C9.61 0.231486 8.8275 0.546966 8.3675 0.63796C8.354 0.64146 8.343 0.64596 8.33 0.649459C7.9235 0.248484 7.3665 0 6.75 0C5.5075 0 4.5 1.00744 4.5 2.24986C4.5 2.31536 4.4945 2.43585 4.5 2.49984C2.8235 2.49984 1.5475 1.6219 0.6325 0.499969C0.533 0.749953 0.4895 1.14493 0.4895 1.51591C0.4895 2.21636 1.037 2.90432 1.8895 3.33079C1.7325 3.37129 1.5595 3.40029 1.3795 3.40029C1.089 3.40029 0.7815 3.32379 0.5 3.09181C0.5 3.10031 0.5 3.10831 0.5 3.11731C0.5 4.09624 1.539 4.7627 2.463 4.94819C2.2755 5.05868 1.8975 5.06968 1.713 5.06968C1.583 5.06968 1.123 5.01019 1 4.98719C1.257 5.78964 2.184 6.24061 3.0675 6.25661C2.3765 6.79858 1.897 6.99956 0.482 6.99956H0C0.894 7.57253 2.0325 8 3.1735 8C6.8885 8 9 5.16868 9 2.49984C9 2.45685 8.999 2.36685 8.9975 2.27636C8.9975 2.26736 9 2.25886 9 2.24986C9 2.23636 8.996 2.22336 8.996 2.20986C8.9945 2.14187 8.993 2.07837 8.9915 2.04537C9.3865 1.76039 9.729 1.40491 10 0.999938C9.6375 1.16093 9.2485 1.26892 8.84 1.31792C9.257 1.06793 9.8495 0.471971 10 0ZM8 2.49984C8 4.53972 6.5215 6.69908 3.767 6.97106C4.14 6.70658 4.5 6.3311 4.5 6.3311C4.5 6.3311 3 5.00019 2.8875 3.2613C3.405 3.41929 3.944 3.49978 4.5 3.49978H5.5V2.24986C5.5 2.24936 5.5 2.24936 5.5 2.24936C5.501 1.5594 6.06 1.00044 6.75 1.00044C7.4405 1.00044 8 1.5599 8 2.25036C8 2.25036 8 2.46035 8 2.49984Z" fill="#B5BEC6"/>
</svg>
