<svg width="8" height="8" viewBox="0 0 8 8" fill="none" xmlns="http://www.w3.org/2000/svg">
<path d="M0.888889 0C0.397778 0 0 0.397778 0 0.888889V7.11111C0 7.60222 0.397778 8 0.888889 8H7.11111C7.60222 8 8 7.60222 8 7.11111V0.888889C8 0.397778 7.60222 0 7.11111 0H0.888889ZM0.888889 0.888889H7.11111V7.11111H0.888889V0.888889ZM2.12413 1.47396C1.74324 1.47396 1.51476 1.70292 1.51476 2.00781C1.51476 2.3127 1.74327 2.5408 2.08594 2.5408C2.46683 2.5408 2.69531 2.3127 2.69531 2.00781C2.69531 1.70292 2.4668 1.47396 2.12413 1.47396ZM1.54514 3.11111V6.22222H2.66667V3.11111H1.54514ZM3.59201 3.11111V6.22222H4.71354V4.5217C4.71354 4.01548 5.07472 3.94271 5.18316 3.94271C5.2916 3.94271 5.5816 4.05148 5.5816 4.5217V6.22222H6.66667V4.5217C6.66667 3.54526 6.23277 3.11111 5.6901 3.11111C5.14744 3.11111 4.85799 3.29181 4.71354 3.54514V3.11111H3.59201Z" fill="#B5BEC6"/>
</svg>
