<svg width="8" height="8" viewBox="0 0 8 8" fill="none" xmlns="http://www.w3.org/2000/svg">
<path d="M4.00508 0C1.80246 0 0.00939467 1.79135 0.00859459 3.99375C0.00819455 4.69775 0.192606 5.38503 0.54224 5.99062L0 8L2.09317 7.50547C2.67683 7.82387 3.33387 7.99101 4.00273 7.99141H4.0043C6.20651 7.99141 7.9988 6.19966 8 3.99766C8.0008 2.93006 7.58561 1.92629 6.83113 1.17109C6.07666 0.416294 5.07398 0.0004 4.00508 0ZM4.0043 0.8C4.85878 0.8004 5.6618 1.13352 6.26545 1.73672C6.86911 2.34072 7.20072 3.14328 7.19992 3.99688C7.19912 5.75847 5.76609 7.19141 4.00351 7.19141C3.47026 7.19101 2.94205 7.05713 2.4768 6.80312L2.20725 6.65625L1.90956 6.72656L1.12198 6.9125L1.31419 6.19844L1.40092 5.87813L1.23528 5.59062C0.956049 5.10742 0.808273 4.55495 0.808673 3.99375C0.809473 2.23295 2.24292 0.8 4.0043 0.8ZM2.59088 2.15C2.52407 2.15 2.41605 2.175 2.32445 2.275C2.23284 2.3746 1.97441 2.61583 1.97441 3.10703C1.97441 3.59823 2.33226 4.07304 2.38226 4.13984C2.43187 4.20624 3.073 5.24609 4.0879 5.64609C4.93118 5.97849 5.10245 5.91289 5.28567 5.89609C5.46889 5.87969 5.87675 5.65508 5.95996 5.42188C6.04316 5.18867 6.04336 4.98808 6.01856 4.94688C5.99375 4.90528 5.92714 4.88047 5.82713 4.83047C5.72752 4.78047 5.23664 4.53945 5.14503 4.50625C5.05342 4.47305 4.98642 4.45625 4.92001 4.55625C4.8536 4.65625 4.66276 4.88048 4.60435 4.94688C4.54595 5.01368 4.48794 5.02266 4.38793 4.97266C4.28792 4.92226 3.96636 4.81656 3.58472 4.47656C3.2879 4.21216 3.08761 3.88594 3.0292 3.78594C2.9712 3.68634 3.02373 3.63163 3.07374 3.58203C3.11854 3.53723 3.17297 3.46543 3.22297 3.40703C3.27258 3.34863 3.28978 3.30702 3.32298 3.24062C3.35618 3.17422 3.33919 3.11563 3.31439 3.06562C3.28958 3.01562 3.09535 2.5226 3.00654 2.325C2.93174 2.159 2.85273 2.15514 2.78152 2.15234C2.72352 2.14994 2.65728 2.15 2.59088 2.15Z" fill="#B5BEC6"/>
</svg>
