<svg width="10" height="10" viewBox="0 0 10 10" fill="none" xmlns="http://www.w3.org/2000/svg">
<path d="M2.75 0C1.231 0 0 1.231 0 2.75C0 3.3655 0.204398 3.93115 0.545898 4.38965C0.518898 4.58965 0.5 4.7925 0.5 5C0.5 7.4855 2.5145 9.5 5 9.5C5.2075 9.5 5.41035 9.4811 5.61035 9.4541C6.06885 9.7956 6.6345 10 7.25 10C8.769 10 10 8.769 10 7.25C10 6.6345 9.7956 6.06885 9.4541 5.61035C9.4811 5.41035 9.5 5.2075 9.5 5C9.5 2.5145 7.4855 0.5 5 0.5C4.7925 0.5 4.58965 0.518898 4.38965 0.545898C3.93115 0.204398 3.3655 0 2.75 0ZM2.75 1C3.1265 1 3.48747 1.12016 3.79297 1.34766L4.11914 1.5918L4.52344 1.53711C4.71044 1.51161 4.862 1.5 5 1.5C6.93 1.5 8.5 3.07 8.5 5C8.5 5.138 8.48839 5.28906 8.46289 5.47656L8.4082 5.88086L8.65234 6.20703C8.87984 6.51253 9 6.8735 9 7.25C9 8.215 8.215 9 7.25 9C6.8735 9 6.51253 8.87984 6.20703 8.65234L5.88086 8.4082L5.47656 8.46289C5.28906 8.48789 5.138 8.5 5 8.5C3.07 8.5 1.5 6.93 1.5 5C1.5 4.862 1.51161 4.71094 1.53711 4.52344L1.5918 4.11914L1.34766 3.79297C1.12016 3.48747 1 3.1265 1 2.75C1 1.785 1.785 1 2.75 1ZM4.9248 2.5C3.04481 2.5 2.90625 3.60445 2.90625 3.87695C2.90625 4.41895 3.21705 4.83995 3.74805 5.04395C4.31255 5.26095 4.99772 5.39107 5.38672 5.49707C5.99522 5.66357 5.91797 5.99885 5.91797 6.04785C5.91797 6.56285 5.21261 6.69549 4.91211 6.66699C4.57211 6.63499 4.22764 6.73214 3.86914 5.99414C3.80514 5.86214 3.68748 5.57324 3.33398 5.57324C3.18098 5.57324 2.79883 5.68969 2.79883 6.05469C2.79883 6.77069 3.59826 7.5 4.98926 7.5C5.71626 7.5 7.07224 7.24834 7.07324 5.94434C7.07324 4.80884 5.92794 4.60958 5.08594 4.39258C4.85544 4.33308 3.99609 4.23809 3.99609 3.78809C3.99609 3.65459 4.18295 3.33398 4.85645 3.33398C5.54995 3.33398 5.70097 3.65865 5.79297 3.82715C5.86997 3.96065 5.93324 4.06378 6.01074 4.11328C6.31824 4.30978 6.59874 4.15916 6.69824 4.05566C6.79774 3.95216 6.84766 3.83801 6.84766 3.70801C6.84766 3.14251 6.1788 2.5 4.9248 2.5Z" fill="#B5BEC6"/>
</svg>
