<svg width="236" height="37" viewBox="0 0 236 37" fill="none" xmlns="http://www.w3.org/2000/svg">
<path d="M4.562 29.404C4.562 30.62 3.81467 31.228 2.32 31.228C0.825333 31.228 0.078 30.62 0.078 29.404V3.108C0.078 2.52533 0.242667 2.006 0.572 1.55C0.901334 1.06867 1.53467 0.827999 2.472 0.827999H15.392C16.304 0.827999 16.7853 1.46133 16.836 2.728C16.8867 4.02 16.4053 4.666 15.392 4.666H4.562V29.404ZM14.29 15.306C14.29 15.7367 14.2013 16.1547 14.024 16.56C13.872 16.94 13.644 17.2693 13.34 17.548C13.0613 17.8267 12.732 18.0547 12.352 18.232C11.972 18.384 11.554 18.46 11.098 18.46C10.2367 18.46 9.502 18.156 8.894 17.548C8.286 16.94 7.982 16.1927 7.982 15.306C7.982 14.4193 8.286 13.672 8.894 13.064C9.502 12.456 10.2367 12.152 11.098 12.152C11.554 12.152 11.972 12.2407 12.352 12.418C12.732 12.57 13.0613 12.798 13.34 13.102C13.644 13.3807 13.872 13.71 14.024 14.09C14.2013 14.47 14.29 14.8753 14.29 15.306ZM32.0277 8.124C32.6864 8.124 33.3577 8.26333 34.0417 8.542C34.751 8.82067 35.435 9.17533 36.0937 9.606H36.0557C36.7144 10.0873 37.221 10.7207 37.5757 11.506C37.9304 12.266 38.1077 13.1527 38.1077 14.166V24.958C38.1077 27.0353 37.4237 28.568 36.0557 29.556C34.713 30.5187 33.3704 31 32.0277 31H25.9477C25.289 31 24.6177 30.886 23.9337 30.658C23.2497 30.43 22.5784 30.0627 21.9197 29.556C20.5517 28.5933 19.8677 27.0607 19.8677 24.958V14.166C19.8677 13.1527 20.045 12.266 20.3997 11.506C20.7544 10.7207 21.261 10.0873 21.9197 9.606H21.8817C22.515 9.17533 23.1864 8.82067 23.8957 8.542C24.605 8.26333 25.289 8.124 25.9477 8.124H32.0277ZM31.3437 27.428C32.281 27.428 32.9397 27.162 33.3197 26.63C33.725 26.098 33.9277 25.528 33.9277 24.92V14.204C33.9277 13.5707 33.725 13.0007 33.3197 12.494C32.9397 11.962 32.281 11.696 31.3437 11.696H26.6317C25.6944 11.696 25.023 11.962 24.6177 12.494C24.2377 13.0007 24.0477 13.5707 24.0477 14.204V24.92C24.0477 25.528 24.2377 26.098 24.6177 26.63C25.023 27.162 25.6944 27.428 26.6317 27.428H31.3437ZM54.3126 8.124C54.9713 8.124 55.6426 8.26333 56.3266 8.542C57.0359 8.82067 57.7199 9.17533 58.3786 9.606H58.3406C58.9993 10.0873 59.5059 10.7207 59.8606 11.506C60.2153 12.266 60.3926 13.1527 60.3926 14.166V24.958C60.3926 27.0353 59.7086 28.568 58.3406 29.556C56.9979 30.5187 55.6553 31 54.3126 31H48.2326C47.5739 31 46.9026 30.886 46.2186 30.658C45.5346 30.43 44.8633 30.0627 44.2046 29.556C42.8366 28.5933 42.1526 27.0607 42.1526 24.958V14.166C42.1526 13.1527 42.3299 12.266 42.6846 11.506C43.0393 10.7207 43.5459 10.0873 44.2046 9.606H44.1666C44.7999 9.17533 45.4713 8.82067 46.1806 8.542C46.8899 8.26333 47.5739 8.124 48.2326 8.124H54.3126ZM53.6286 27.428C54.5659 27.428 55.2246 27.162 55.6046 26.63C56.0099 26.098 56.2126 25.528 56.2126 24.92V14.204C56.2126 13.5707 56.0099 13.0007 55.6046 12.494C55.2246 11.962 54.5659 11.696 53.6286 11.696H48.9166C47.9793 11.696 47.3079 11.962 46.9026 12.494C46.5226 13.0007 46.3326 13.5707 46.3326 14.204V24.92C46.3326 25.528 46.5226 26.098 46.9026 26.63C47.3079 27.162 47.9793 27.428 48.9166 27.428H53.6286ZM78.5355 11.696H71.2015C70.1629 11.696 69.4789 12 69.1495 12.608C68.7949 13.14 68.6175 13.7607 68.6175 14.47V25.414C68.6175 26.0727 68.8202 26.5793 69.2255 26.934C69.6309 27.2633 70.3022 27.428 71.2395 27.428H75.1535C76.0655 27.428 76.5215 28.0233 76.5215 29.214C76.5215 29.7207 76.4075 30.1513 76.1795 30.506C75.9769 30.8353 75.6349 31 75.1535 31H70.5555C68.9595 31 67.5409 30.5947 66.2995 29.784C65.0582 29.024 64.4375 27.58 64.4375 25.452V14.128C64.4375 13.0893 64.6022 12.19 64.9315 11.43C65.2609 10.67 65.7802 10.0493 66.4895 9.568C67.8322 8.60533 69.1749 8.124 70.5175 8.124H78.5355V2.424C78.5355 1.208 79.2322 0.6 80.6255 0.6C82.0189 0.6 82.7155 1.208 82.7155 2.424V29.404C82.7155 30.62 82.0189 31.228 80.6255 31.228C80.0935 31.228 79.6122 31.1393 79.1815 30.962C78.7509 30.7593 78.5355 30.3287 78.5355 29.67V11.696ZM111.371 27.2C112.308 27.2 112.967 26.934 113.347 26.402C113.727 25.87 113.917 25.2747 113.917 24.616V7.212C113.917 6.57867 113.727 5.996 113.347 5.464C112.967 4.932 112.308 4.666 111.371 4.666H102.479L102.441 29.442C102.441 29.9993 102.225 30.4427 101.795 30.772C101.364 31.1013 100.832 31.266 100.199 31.266C98.7041 31.266 97.9568 30.658 97.9568 29.442V3.108C97.9568 2.196 98.1848 1.588 98.6408 1.284C99.1221 0.979998 99.6921 0.827999 100.351 0.827999H112.321C112.979 0.827999 113.663 0.967332 114.373 1.246C115.082 1.52467 115.766 1.87933 116.425 2.31H116.387C117.045 2.79133 117.552 3.42466 117.907 4.21C118.261 4.97 118.439 5.85667 118.439 6.87V24.92C118.439 26.972 117.755 28.5047 116.387 29.518C115.728 29.9993 115.044 30.3793 114.335 30.658C113.651 30.9113 112.979 31.038 112.321 31.038H105.937C105.506 31.038 105.164 30.8607 104.911 30.506C104.683 30.1513 104.569 29.6827 104.569 29.1C104.569 27.8333 105.113 27.2 106.203 27.2H111.371ZM127.271 24.92C127.271 25.528 127.461 26.098 127.841 26.63C128.246 27.162 128.918 27.428 129.855 27.428H134.605C135.542 27.428 136.201 27.2 136.581 26.744C136.986 26.2627 137.189 25.718 137.189 25.11V24.692C137.189 23.5013 137.886 22.906 139.279 22.906C140.672 22.906 141.369 23.5013 141.369 24.692V25.148C141.369 26.212 141.192 27.086 140.837 27.77C140.508 28.454 140.001 29.0493 139.317 29.556C137.974 30.5187 136.632 31 135.289 31H128.905C127.562 31 126.258 30.5187 124.991 29.556C124.383 29.0493 123.914 28.416 123.585 27.656C123.256 26.8707 123.091 25.9713 123.091 24.958V14.128C123.091 12.076 123.724 10.556 124.991 9.568C125.624 9.112 126.27 8.75733 126.929 8.504C127.613 8.22533 128.272 8.086 128.905 8.086H135.289C135.897 8.086 136.568 8.21266 137.303 8.466C138.038 8.694 138.722 9.01067 139.355 9.416C139.963 9.84667 140.444 10.442 140.799 11.202C141.179 11.962 141.369 12.8613 141.369 13.9V19.03C141.369 19.6127 141.192 20.132 140.837 20.588C140.508 21.044 139.887 21.272 138.975 21.272H130.767C129.855 21.272 129.374 20.6767 129.323 19.486C129.323 18.2953 129.804 17.7 130.767 17.7H137.227L137.189 14.166C137.189 13.5327 136.986 12.9627 136.581 12.456C136.201 11.924 135.542 11.658 134.605 11.658H129.855C128.918 11.658 128.246 11.924 127.841 12.456C127.461 12.9627 127.271 13.5327 127.271 14.166V24.92ZM149.782 29.518C149.782 30.7087 149.086 31.304 147.692 31.304C146.274 31.304 145.564 30.7087 145.564 29.518V2.272C145.564 1.08133 146.274 0.485999 147.692 0.485999C149.086 0.485999 149.782 1.08133 149.782 2.272V29.518ZM158.558 29.404C158.558 30.62 157.862 31.228 156.468 31.228C155.05 31.228 154.34 30.62 154.34 29.404V9.796C154.34 8.58 155.05 7.972 156.468 7.972C157.862 7.972 158.558 8.58 158.558 9.796V29.404ZM159.356 3.184C159.356 3.99466 159.078 4.67867 158.52 5.236C157.963 5.79333 157.279 6.072 156.468 6.072C155.658 6.072 154.961 5.79333 154.378 5.236C153.821 4.67867 153.542 3.99466 153.542 3.184C153.542 2.348 153.821 1.65133 154.378 1.094C154.961 0.536666 155.658 0.257999 156.468 0.257999C157.279 0.257999 157.963 0.536666 158.52 1.094C159.078 1.65133 159.356 2.348 159.356 3.184ZM170.831 31.228C170.78 31.228 170.717 31.2153 170.641 31.19C170.565 31.19 170.489 31.19 170.413 31.19C170.286 31.19 170.109 31.19 169.881 31.19C169.653 31.19 169.437 31.1773 169.235 31.152C168.804 31.1267 168.437 31.0127 168.133 30.81C167.829 30.582 167.613 30.316 167.487 30.012L161.103 10.404C160.976 9.872 161.039 9.40333 161.293 8.998C161.571 8.56733 162.002 8.25067 162.585 8.048C162.762 7.99733 162.939 7.95933 163.117 7.934C163.294 7.90866 163.446 7.896 163.573 7.896C164.358 7.896 164.903 8.32667 165.207 9.188L167.981 17.814L170.907 26.858L176.607 9.188C176.885 8.30133 177.392 7.858 178.127 7.858C178.405 7.858 178.76 7.92133 179.191 8.048C179.849 8.22533 180.305 8.52933 180.559 8.96C180.812 9.36533 180.85 9.84667 180.673 10.404L174.327 30.012C174.099 30.7213 173.503 31.1013 172.541 31.152C172.49 31.152 172.427 31.152 172.351 31.152C172.3 31.1773 172.249 31.19 172.199 31.19C171.996 31.2153 171.819 31.228 171.667 31.228C171.515 31.228 171.375 31.228 171.249 31.228H170.831ZM187.465 24.92C187.465 25.528 187.655 26.098 188.035 26.63C188.441 27.162 189.112 27.428 190.049 27.428H194.799C195.737 27.428 196.395 27.2 196.775 26.744C197.181 26.2627 197.383 25.718 197.383 25.11V24.692C197.383 23.5013 198.08 22.906 199.473 22.906C200.867 22.906 201.563 23.5013 201.563 24.692V25.148C201.563 26.212 201.386 27.086 201.031 27.77C200.702 28.454 200.195 29.0493 199.511 29.556C198.169 30.5187 196.826 31 195.483 31H189.099C187.757 31 186.452 30.5187 185.185 29.556C184.577 29.0493 184.109 28.416 183.779 27.656C183.45 26.8707 183.285 25.9713 183.285 24.958V14.128C183.285 12.076 183.919 10.556 185.185 9.568C185.819 9.112 186.465 8.75733 187.123 8.504C187.807 8.22533 188.466 8.086 189.099 8.086H195.483C196.091 8.086 196.763 8.21266 197.497 8.466C198.232 8.694 198.916 9.01067 199.549 9.416C200.157 9.84667 200.639 10.442 200.993 11.202C201.373 11.962 201.563 12.8613 201.563 13.9V19.03C201.563 19.6127 201.386 20.132 201.031 20.588C200.702 21.044 200.081 21.272 199.169 21.272H190.961C190.049 21.272 189.568 20.6767 189.517 19.486C189.517 18.2953 189.999 17.7 190.961 17.7H197.421L197.383 14.166C197.383 13.5327 197.181 12.9627 196.775 12.456C196.395 11.924 195.737 11.658 194.799 11.658H190.049C189.112 11.658 188.441 11.924 188.035 12.456C187.655 12.9627 187.465 13.5327 187.465 14.166V24.92ZM209.749 29.404C209.749 30.62 209.052 31.228 207.659 31.228C206.215 31.228 205.493 30.62 205.493 29.404V13.672C205.493 11.5947 206.113 10.1507 207.355 9.34C208.596 8.52933 210.027 8.124 211.649 8.124H215.981C216.918 8.124 217.387 8.71933 217.387 9.91C217.437 11.1007 216.969 11.696 215.981 11.696H211.953C211.041 11.696 210.445 11.8733 210.167 12.228C209.888 12.5827 209.749 13.0767 209.749 13.71V29.404ZM221.056 36.32C220.169 36.32 219.7 35.7247 219.65 34.534C219.65 33.3433 220.118 32.748 221.056 32.748H222.728C223.614 32.748 224.197 32.482 224.476 31.95L225.008 30.544L225.198 29.936L217.788 10.518V10.556C217.585 9.948 217.623 9.42867 217.902 8.998C218.206 8.56733 218.662 8.25067 219.27 8.048C219.726 7.92133 220.093 7.858 220.372 7.858C221.106 7.858 221.562 8.28867 221.74 9.15L224.742 16.636L227.288 22.868L231.354 9.226C231.582 8.314 232.114 7.858 232.95 7.858C233.152 7.858 233.482 7.92133 233.938 8.048C234.546 8.22533 234.976 8.51667 235.23 8.922C235.508 9.32733 235.572 9.80867 235.42 10.366C234.28 14.242 233.114 18.1433 231.924 22.07C230.758 25.9967 229.606 29.8853 228.466 33.736C228.339 34.0147 228.136 34.2933 227.858 34.572C227.604 34.876 227.262 35.1547 226.832 35.408C226.401 35.6867 225.869 35.902 225.236 36.054C224.602 36.2313 223.868 36.32 223.032 36.32H221.056Z" fill="black"/>
</svg>
