<svg width="16" height="15" viewBox="0 0 16 15" fill="none" xmlns="http://www.w3.org/2000/svg">
<path d="M11.3787 0.399971C10.0133 0.399971 8.70278 1.03561 7.84741 2.04008C6.99204 1.03561 5.68153 0.399971 4.31608 0.399971C1.89907 0.399971 0 2.29904 0 4.71605C0 7.68237 2.66812 10.0994 6.70954 13.772L7.84741 14.8L8.98528 13.7641C13.0267 10.0994 15.6948 7.68237 15.6948 4.71605C15.6948 2.29904 13.7957 0.399971 11.3787 0.399971ZM7.92588 12.6027L7.84741 12.6812L7.76894 12.6027C4.03357 9.22046 1.56948 6.98395 1.56948 4.71605C1.56948 3.14656 2.74659 1.96945 4.31608 1.96945C5.52458 1.96945 6.70169 2.74635 7.1176 3.82144H8.58507C8.99313 2.74635 10.1702 1.96945 11.3787 1.96945C12.9482 1.96945 14.1253 3.14656 14.1253 4.71605C14.1253 6.98395 11.6613 9.22046 7.92588 12.6027Z" fill="#FCC04B"/>
</svg>
