<?xml version="1.0" encoding="UTF-8"?>
<!DOCTYPE svg PUBLIC "-//W3C//DTD SVG 1.1//EN" "http://www.w3.org/Graphics/SVG/1.1/DTD/svg11.dtd">
<!-- Creator: CorelDRAW X7 -->
<svg xmlns="http://www.w3.org/2000/svg" xml:space="preserve" width="210mm" height="297mm" version="1.1" style="shape-rendering:geometricPrecision; text-rendering:geometricPrecision; image-rendering:optimizeQuality; fill-rule:evenodd; clip-rule:evenodd"
viewBox="0 0 21000 29700"
 xmlns:xlink="http://www.w3.org/1999/xlink">
 <defs>
  <style type="text/css">
   <![CDATA[
    .fil0 {fill:#898989;fill-rule:nonzero}
   ]]>
  </style>
 </defs>
 <g id="Layer_x0020_1">
  <metadata id="CorelCorpID_0Corel-Layer"/>
  <path class="fil0" d="M12270 16084l2505 2391c199,190 207,505 17,705 -190,199 -505,207 -705,17l-2555 -2439c-560,381 -1236,603 -1964,603 -966,0 -1841,-391 -2474,-1025 -633,-633 -1025,-1507 -1025,-2474 0,-966 392,-1840 1025,-2473 633,-633 1508,-1025 2474,-1025 966,0 1840,392 2474,1025 633,633 1024,1507 1024,2473 0,844 -298,1618 -796,2222zm-935 -3988c-453,-452 -1077,-732 -1767,-732 -690,0 -1315,280 -1767,732 -452,452 -732,1076 -732,1766 0,691 280,1315 732,1767 452,452 1077,732 1767,732 690,0 1314,-280 1767,-732 452,-452 731,-1076 731,-1767 0,-690 -279,-1314 -731,-1766z"/>
 </g>
</svg>
