<svg width="35" height="35" viewBox="0 0 35 35" fill="none" xmlns="http://www.w3.org/2000/svg">
<circle cx="17.5" cy="17.5" r="17.5" fill="#E52E0C"/>
<path d="M20.74 24V20.1V24ZM20.74 12.95V11V12.95ZM20.74 18.15C21.0814 18.15 21.4195 18.0827 21.735 17.9521C22.0504 17.8214 22.337 17.6299 22.5785 17.3885C22.8199 17.147 23.0114 16.8604 23.1421 16.545C23.2727 16.2295 23.34 15.8914 23.34 15.55C23.34 15.2086 23.2727 14.8705 23.1421 14.555C23.0114 14.2396 22.8199 13.953 22.5785 13.7115C22.337 13.4701 22.0504 13.2786 21.735 13.1479C21.4195 13.0173 21.0814 12.95 20.74 12.95C20.0504 12.95 19.3891 13.2239 18.9015 13.7115C18.4139 14.1991 18.14 14.8604 18.14 15.55C18.14 16.2396 18.4139 16.9009 18.9015 17.3885C19.3891 17.8761 20.0504 18.15 20.74 18.15ZM13.6 24V22.05V24ZM13.6 14.9V11V14.9ZM13.6 22.05C13.9414 22.05 14.2795 21.9827 14.595 21.8521C14.9104 21.7214 15.197 21.5299 15.4385 21.2885C15.6799 21.047 15.8714 20.7604 16.0021 20.445C16.1327 20.1295 16.2 19.7914 16.2 19.45C16.2 19.1086 16.1327 18.7705 16.0021 18.455C15.8714 18.1396 15.6799 17.853 15.4385 17.6115C15.197 17.3701 14.9104 17.1786 14.595 17.0479C14.2795 16.9173 13.9414 16.85 13.6 16.85C12.9104 16.85 12.2491 17.1239 11.7615 17.6115C11.2739 18.0991 11 18.7604 11 19.45C11 20.1396 11.2739 20.8009 11.7615 21.2885C12.2491 21.7761 12.9104 22.05 13.6 22.05Z" fill="#E52E0C"/>
<path d="M20.74 24V20.1M20.74 12.95V11M13.6 24V22.05M13.6 14.9V11M20.74 18.15C21.0814 18.15 21.4195 18.0827 21.735 17.9521C22.0504 17.8214 22.337 17.6299 22.5785 17.3885C22.8199 17.147 23.0114 16.8604 23.1421 16.545C23.2727 16.2295 23.34 15.8914 23.34 15.55C23.34 15.2086 23.2727 14.8705 23.1421 14.555C23.0114 14.2396 22.8199 13.953 22.5785 13.7115C22.337 13.4701 22.0504 13.2786 21.735 13.1479C21.4195 13.0173 21.0814 12.95 20.74 12.95C20.0504 12.95 19.3891 13.2239 18.9015 13.7115C18.4139 14.1991 18.14 14.8604 18.14 15.55C18.14 16.2396 18.4139 16.9009 18.9015 17.3885C19.3891 17.8761 20.0504 18.15 20.74 18.15V18.15ZM13.6 22.05C13.9414 22.05 14.2795 21.9827 14.595 21.8521C14.9104 21.7214 15.197 21.5299 15.4385 21.2885C15.6799 21.047 15.8714 20.7604 16.0021 20.445C16.1327 20.1295 16.2 19.7914 16.2 19.45C16.2 19.1086 16.1327 18.7705 16.0021 18.455C15.8714 18.1396 15.6799 17.853 15.4385 17.6115C15.197 17.3701 14.9104 17.1786 14.595 17.0479C14.2795 16.9173 13.9414 16.85 13.6 16.85C12.9104 16.85 12.2491 17.1239 11.7615 17.6115C11.2739 18.0991 11 18.7604 11 19.45C11 20.1396 11.2739 20.8009 11.7615 21.2885C12.2491 21.7761 12.9104 22.05 13.6 22.05V22.05Z" stroke="white" stroke-width="1.5" stroke-miterlimit="10" stroke-linecap="round" stroke-linejoin="round"/>
</svg>
